<svg width="25" height="24" viewBox="0 0 25 24" fill="none" xmlns="http://www.w3.org/2000/svg">
<g clip-path="url(#clip0)">
<path d="M23.6841 3.00005C22.7265 3.67552 21.6662 4.19216 20.5441 4.53005C19.9418 3.83756 19.1414 3.34674 18.2511 3.12397C17.3608 2.90121 16.4236 2.95724 15.5662 3.2845C14.7087 3.61176 13.9725 4.19445 13.4571 4.95376C12.9416 5.71308 12.6718 6.61238 12.6841 7.53005V8.53005C10.9267 8.57561 9.18536 8.18586 7.61509 7.39549C6.04483 6.60513 4.6944 5.43868 3.68408 4.00005C3.68408 4.00005 -0.315918 13 8.68408 17C6.62461 18.398 4.17124 19.099 1.68408 19C10.6841 24 21.6841 19 21.6841 7.50005C21.6832 7.2215 21.6564 6.94364 21.6041 6.67005C22.6247 5.66354 23.3449 4.39276 23.6841 3.00005V3.00005Z" stroke="#090807" stroke-width="2" stroke-linecap="round" stroke-linejoin="round"/>
</g>
<defs>
<clipPath id="clip0">
<rect width="24" height="24" fill="white" transform="translate(0.684082)"/>
</clipPath>
</defs>
</svg>
